<?xml version="1.0" encoding="utf-8"?>
<!-- Generated by IcoMoon.io -->
<!DOCTYPE svg PUBLIC "-//W3C//DTD SVG 1.1//EN" "http://www.w3.org/Graphics/SVG/1.1/DTD/svg11.dtd">
<svg version="1.1" xmlns="http://www.w3.org/2000/svg" xmlns:xlink="http://www.w3.org/1999/xlink" width="32" height="32" viewBox="0 0 32 32">
	<path d="M30.38 22.52l-5.14-5.14c0.5-1.36 0.76-2.84 0.76-4.38 0-7.18-5.82-13-13-13s-13 5.82-13 13 5.82 13 13 13c1.54 0 3.020-0.26 4.38-0.76l5.138 5.14c1.042 1.040 2.442 1.62 3.922 1.62s2.88-0.58 3.942-1.62c2.158-2.18 2.158-5.7-0.002-7.86zM14.080 21.94c-0.36 0.040-0.72 0.060-1.080 0.060-4.96 0-9-4.040-9-9s4.040-9 9-9 9 4.040 9 9c0 0.36-0.020 0.72-0.060 1.080-0.18 1.5-0.74 2.9-1.58 4.080-0.6 0.86-1.34 1.6-2.2 2.2-1.18 0.84-2.58 1.4-4.080 1.58zM27.54 27.54c-0.578 0.602-1.62 0.602-2.2 0l-4.32-4.318c0.82-0.64 1.56-1.38 2.202-2.202l4.318 4.32c0.62 0.62 0.62 1.6 0 2.2z" />
</svg>
