<?xml version="1.0" encoding="utf-8"?>
<!-- Generated by IcoMoon.io -->
<!DOCTYPE svg PUBLIC "-//W3C//DTD SVG 1.1//EN" "http://www.w3.org/Graphics/SVG/1.1/DTD/svg11.dtd">
<svg version="1.1" xmlns="http://www.w3.org/2000/svg" xmlns:xlink="http://www.w3.org/1999/xlink" width="32" height="32" viewBox="0 0 32 32">
	<path d="M31.988 5.078c-1.176 0.524-2.442 0.876-3.77 1.036 1.356-0.812 2.394-2.098 2.886-3.632-1.27 0.754-2.676 1.3-4.168 1.594-1.198-1.28-2.904-2.076-4.792-2.076-3.624 0-6.564 2.942-6.564 6.566 0 0.516 0.058 1.016 0.17 1.496-5.456-0.274-10.294-2.886-13.534-6.86-0.562 0.97-0.886 2.098-0.886 3.302 0 2.278 1.52 4.286 3.282 5.464-1.076-0.034-2.612-0.332-2.612-0.824 0 0.032 0 0.058 0 0.086 0 3.18 1.9 5.832 4.902 6.438-0.55 0.148-1.31 0.23-1.908 0.23-0.424 0-0.924-0.042-1.328-0.122 0.836 2.61 3.216 4.508 6.088 4.562-2.246 1.758-5.102 2.808-8.176 2.808-0.532 0-1.064-0.032-1.578-0.090 2.906 1.86 6.35 2.95 10.058 2.95 12.080 0 18.676-10.004 18.676-18.68 0-0.286-0.008-0.57-0.022-0.852 1.286-0.924 2.398-2.080 3.276-3.396z" />
</svg>
